<?xml version="1.0" standalone="no"?>
<!DOCTYPE svg PUBLIC "-//W3C//DTD SVG 20010904//EN"
 "http://www.w3.org/TR/2001/REC-SVG-20010904/DTD/svg10.dtd">
<svg version="1.0" xmlns="http://www.w3.org/2000/svg"
 width="558.000000pt" height="558.000000pt" viewBox="0 0 558.000000 558.000000"
 preserveAspectRatio="xMidYMid meet">
<metadata>
Created by potrace 1.11, written by Peter Selinger 2001-2013
</metadata>
<g transform="translate(0.000000,558.000000) scale(0.100000,-0.100000)"
fill="#000000" stroke="none">
<path d="M975 3779 c-326 -47 -635 -280 -751 -569 -85 -208 -97 -484 -32 -729
101 -388 401 -638 810 -676 l77 -7 133 72 c73 40 153 85 178 99 l45 26 -255 6
c-228 5 -262 8 -325 28 -212 69 -342 182 -430 374 -91 200 -107 482 -39 686
79 235 288 419 548 481 65 16 117 20 269 20 l187 0 175 96 c96 53 175 98 175
100 0 8 -707 1 -765 -7z"/>
<path d="M2345 3779 c-190 -28 -374 -125 -467 -247 -214 -280 -120 -652 204
-811 159 -79 196 -84 593 -89 192 -2 348 -1 345 1 -3 3 -180 55 -395 117 -214
62 -419 126 -454 143 -186 87 -265 283 -182 452 54 109 161 188 307 225 73 19
112 20 771 20 l694 0 175 96 c95 53 174 98 174 100 0 8 -1707 1 -1765 -7z"/>
<path d="M4310 3692 l-175 -97 260 -6 c235 -5 267 -8 330 -28 177 -58 302
-153 387 -293 128 -209 161 -528 81 -770 -60 -181 -212 -344 -400 -430 -125
-56 -195 -68 -410 -68 l-193 0 -177 -97 -177 -98 339 -3 c367 -3 446 3 580 45
253 80 463 252 575 473 85 167 119 407 89 627 -63 468 -339 762 -776 828 -54
8 -111 15 -128 14 -19 0 -97 -37 -205 -97z"/>
<path d="M2550 2957 c3 -3 172 -53 375 -112 204 -58 394 -113 424 -122 68 -21
161 -82 201 -133 52 -65 72 -124 72 -207 0 -63 -5 -84 -31 -138 -50 -102 -144
-175 -281 -221 -51 -17 -111 -19 -785 -24 l-730 -5 -165 -94 c-91 -51 -167
-95 -170 -98 -2 -2 401 -2 895 -1 899 4 900 4 978 26 218 63 357 173 438 345
120 258 2 562 -271 695 -161 80 -197 85 -600 90 -195 2 -353 2 -350 -1z"/>
</g>
</svg>
