<?xml version="1.0" encoding="utf-8"?>
<!-- Generator: Adobe Illustrator 16.2.0, SVG Export Plug-In . SVG Version: 6.00 Build 0)  -->
<!DOCTYPE svg PUBLIC "-//W3C//DTD SVG 1.1//EN" "http://www.w3.org/Graphics/SVG/1.1/DTD/svg11.dtd">
<svg version="1.1" id="Layer_1" xmlns="http://www.w3.org/2000/svg" xmlns:xlink="http://www.w3.org/1999/xlink" x="0px" y="0px"
	 width="1200px" height="569.972px" viewBox="0 0 1200 569.972" enable-background="new 0 0 1200 569.972" xml:space="preserve">
<g>
	<linearGradient id="SVGID_1_" gradientUnits="userSpaceOnUse" x1="600" y1="560.8838" x2="600" y2="361.3857">
		<stop  offset="0" style="stop-color:#FFFFFF;stop-opacity:0"/>
		<stop  offset="0.1205" style="stop-color:#FBFBFB;stop-opacity:0.1205"/>
		<stop  offset="0.2454" style="stop-color:#EEEEEE;stop-opacity:0.2454"/>
		<stop  offset="0.3724" style="stop-color:#DADADA;stop-opacity:0.3724"/>
		<stop  offset="0.5008" style="stop-color:#BCBCBC;stop-opacity:0.5008"/>
		<stop  offset="0.6304" style="stop-color:#979797;stop-opacity:0.6304"/>
		<stop  offset="0.761" style="stop-color:#696969;stop-opacity:0.761"/>
		<stop  offset="0.8898" style="stop-color:#343434;stop-opacity:0.8898"/>
		<stop  offset="1" style="stop-color:#000000"/>
	</linearGradient>
	<path fill="url(#SVGID_1_)" d="M106.067,421.57h15.169v48.334h4.334v11.079h26.003v-11.079h4.334V421.57h9.535v-15.866h6.067
		v67.297h4.623v11.825h5.952v15.679h9.246v42.215l26.553,13.131v-53.166h15.891V457.87h10.256v13.219h17.336v2.205h3.179v8.412
		h3.467v8.412h2.167v12.028l7.223-6.565v-3.834h8.128v5.164h6.123v5.164h22.174v-5.164h6.123v-3.128h1.225v-2.036h7.491v-11.232
		h2.91v-48.549h6.645v50.082h4.334v5.457h2.708v3.79h3.034v2.997h3.142v2.996h1.842v2.996l3.095,13.805l3.189-13.805v-2.996h1.842
		v-2.996h3.142v-2.997h3.034v-3.79h2.708v-5.457h4.334v-50.082h10.401v41.328h3.179v8.412h3.467v8.412h2.167v5.463l5.922,5.383
		v18.254c0,0.451,0.39,0.82,0.867,0.82c0.478,0,0.867-0.369,0.867-0.82v-29.1h1.734v-8.412h1.78v18.396h2.478v60.782h29.125v-46.795
		h0.682v-13.987h6.718v-72.735h7.469v-19.392l3.054,3.328l6.692-7.292h1.521v14.328h2.074v59.915l5.587,13.131h11.073v19.241
		c0,0.452,0.39,0.82,0.867,0.82c0.478,0,0.867-0.368,0.867-0.82v-22.832l0-0.001v-39.447h10.304v15.098h3.323v5.984h2.456v4.753
		h7.079v-4.753h2.455v-5.984h3.323v-15.098h2.054v94.126c0,0,0,1.351,0,7.529c12.516,0,20.666-1.392,25.9-2.979v13.861h23.403
		v-16.918h6.718v-1.494h0v18.412h53.307V435.898h24.559v-30.776h6.645v37.615v76.498h4.888v41.648h53.064v-19.678h0.881v3.873
		l2.742,15.805h0.717l2.825-15.805v-3.873h1.842v-3.873h3.142v-3.872h3.034v-4.898h2.709v-7.053h4.334V416.563h8.274l5.779,10.032
		h1.549v66.189h8.234v63.604h6.501v4.494h23.836v-4.494h6.501v-13.918h0.704c0,0,5.534,7.529,34.647,7.529c0-6.179,0-7.529,0-7.529
		v-40.396h11.087v-5.164h1.812v22.876l4.455-21.929l1.74,9.473h3.621l1.424,9.027h2.975l1.023,8.114h2.261l2.941,8.113h1.887
		l3.081,23.198h0.036l3.081-23.198h1.886l2.942-8.113h2.26l1.023-8.114h2.975l1.424-9.027h3.621l1.74-9.473l4.456,21.929v-22.97
		v-26.933h4.479v57.747h5.874v16.504h22.354v-16.504h5.874v-57.747h18.771v-37.919h3.997v44.658v3.215v24.485h30.157v-24.485h8.151
		v1.064h1.544v-1.064h3.089v1.131h5.075v5.848c0,4.569,5.729,8.273,12.797,8.273s12.797-3.704,12.797-8.273v-5.848h5.075v-5.061
		h3.089v4.994h1.544v-4.994h1.024v3.155h21.164v-3.155h5.851v-79.661h8.341v7.721v3.104h1.95v5.36h3.734v-5.36h5.065v-3.104h7.476
		v-7.721h6.03V379.69v-1.045v-14.326v-2.934h-32.596h-11.208h-16.831h-4.827l0,0h-29.752h-2.227h-8.205h-38.309h-13.437h-9.332
		h-34.102h-4.479h-2.6h-17.148h-18.077h-12.666h-0.361h-1.19h-4.207h-7.502h-2.343h-23.582h-1.192h-11.894H774.98h-0.019h-1.313
		h-23.126H734.92h-1.011h-21.214h-7.101h-7.079h-9.67h-1.037h-8.506h-12.279h-7.392h-4.455h-0.434h-6.645h-9.586h-14.973h-31.541
		h-20.49h-1.276h0h-18.849h-2.92h-12.713h-4.018h-0.073h-0.43h-6.938h-0.072H514.21h-30.994h-1.831h-15.631h-0.015h-0.916h-20.811
		h-7.4h-9.834h-4.104h-11.285h-1.513h-2.388h-2.478h-19.983h-6.836h-3.565h-36.405h-1.532h-2.033h-3.08h-2.91h-31.761h-10.69h-2.494
		h-5.018h-1.887h-8.608h-6.841h-11.702h-5.035h-0.599h-4.623h-0.433h-4.912h-0.289h-0.145h-0.599h-9.692h-2.286h-3.169h-18.78
		H171.51h-7.085h-8.517h-34.671H100v2.934v14.326v1.045v19.76v6.254h6.067V421.57z"/>
	<g>
		<g>
			<path fill="#A7A9AC" d="M422.712,148.19v-12.355c0-0.365-0.296-0.661-0.662-0.661s-0.662,0.296-0.662,0.661v12.355
				c0,0.115,0.037,0.219,0.089,0.313l-13.99,7.631v202.655h29.125V156.134l-13.989-7.63
				C422.675,148.409,422.712,148.306,422.712,148.19z"/>
			<path fill="#A7A9AC" d="M1037.821,239.272v7.766h-3.089v-7.832h-5.075v-5.848c0-4.569-5.729-8.274-12.797-8.274
				s-12.797,3.705-12.797,8.274v5.848h-5.075v7.832h-3.089v-7.766h-1.544v119.517h45.01V239.272H1037.821z"/>
			<polygon fill="#A7A9AC" points="319.951,223.265 313.828,223.265 313.828,218.101 291.653,218.101 291.653,223.265 
				285.53,223.265 285.53,228.428 276.815,228.428 276.815,358.789 328.666,358.789 328.666,228.428 319.951,228.428 			"/>
			<path fill="#A7A9AC" d="M848.156,223.265h-6.123v-5.164h-11.087v-40.396c0,0,0-1.352,0-7.53c-29.114,0-34.647,7.53-34.647,7.53
				h-22.65v181.085h31.372h25.925h25.926V228.428h-8.716V223.265z"/>
			<path fill="#A7A9AC" d="M694.05,150.971h-6.123v-5.164h-0.076l-10.387-5.242v-37.025c0-0.366-0.296-0.661-0.662-0.661
				s-0.662,0.295-0.662,0.661v37.025l-10.387,5.242v5.164h-6.123v5.163v202.655h53.064V156.134H694.05V150.971z"/>
			<path fill="#A7A9AC" d="M514.21,170.174c0,6.179,0,7.53,0,7.53v181.085h57.297V177.704h-22.65
				C548.857,177.704,543.324,170.174,514.21,170.174z"/>
		</g>
		<path fill="#A7A9AC" d="M105.893,141.131l1.55,2.153l-1.899,0.56l4.482,5.339c0,0-0.689,1.162-0.172,1.636
			c0.517,0.474,1.119,0.517,2.109,0.409c0.086,0.452,0.84,3.875,0.84,3.875l1.808-0.345c0,0,0.495-0.086,1.528-1.184
			s2.777-2.971,2.777-2.971s10.699-1.658,12.572-2.046c1.873-0.388,8.396-1.872,8.396-1.872l5.533-0.539l-0.582,0.604l-0.28,3.078
			l0.861-0.431l-5.985,7.911l1.065,0.904l2.81-2.163l0.678,0.129l2.615-2.228l2.067-0.308v0.259c0,0,3.084-0.404,3.52-0.855
			c0.097-0.21,0.275-1.793-0.371-2.406c-0.226-0.016-0.904,0.129-0.904,0.129l2.513-2.384l1.701-0.237v0.28
			c0,0,3.294-0.774,3.746-1.033c0-0.549-0.049-2.147-0.468-2.551c-0.274,0-1.082-0.017-1.082-0.017l2.389-2.498l-0.474-0.812
			c0,0,4.952-2.304,5.317-2.626c0.366-0.323,15.772-4.543,17.574-9.451c0-0.581,0.138-0.872-2.914-1.372
			c-1.082-0.097-3.057-0.394-3.638-0.501c-0.581-0.107-2.023-0.56-5.683,0.84c-0.409,0.107-12.185,3.423-15.478,5.102
			c-0.097-0.29-0.323-1.081-0.323-1.081s-5.403,0.995-5.791,0.995c-0.387,0-6.975-2.023-7.083-2.152
			c-0.107-0.129,0.151-2.411-1.141-2.152c-1.292,0.258-3.983,0.904-4.779,0.753c-0.431-0.237-0.759-0.624-0.759-0.624l-11.232-3.961
			l-0.021,0.258l-1.453-0.431l-1.561-0.054c0,0-2.454-1.065-4.563-0.474c0.301,0.334,0.495,0.937,5.984,3.821
			c5.49,2.885,7.836,4.154,7.836,4.154l-1.098,0.861l2.282,1.271l-0.205,0.323l1.034,0.043l3.296,1.752l-0.146,0.443l0.888-0.186
			l0.535,0.293l1.55-0.796l0.99,0.753l0.796-0.043l-2.239,1.594l0.517,0.624l-14.38,4.833c0,0-0.097,0.354-1.582-0.227
			c-1.486-0.581-10.915-3.939-10.915-3.939s-0.743-0.452-1.809-0.064C107.981,140.485,105.893,141.131,105.893,141.131z"/>
		<polygon fill="#808285" points="682.971,185.204 660.616,185.204 660.616,200.94 654.742,200.94 654.742,358.789 688.845,358.789 
			688.845,200.94 682.971,200.94 		"/>
		<polygon fill="#808285" points="563.513,158.213 540.11,158.213 540.11,176.21 531.229,176.21 531.229,358.789 570.23,358.789 
			570.23,176.21 563.513,176.21 		"/>
		<polygon fill="#808285" points="437.294,206.087 413.892,206.087 413.892,220.073 405.01,220.073 405.01,358.789 444.012,358.789 
			444.012,220.073 437.294,220.073 		"/>
		<polygon fill="#808285" points="927.404,176.039 905.05,176.039 905.05,192.543 899.175,192.543 899.175,358.789 933.278,358.789 
			933.278,192.543 927.404,192.543 		"/>
		<rect x="199.103" y="217.49" fill="#808285" width="34.671" height="141.299"/>
		<rect x="244.03" y="249.087" fill="#808285" width="34.672" height="109.702"/>
		<rect x="233.03" y="262.306" fill="#808285" width="11.599" height="96.483"/>
		<polygon fill="#808285" points="151.574,250.271 151.574,239.192 125.57,239.192 125.57,250.271 121.236,250.271 121.236,358.789 
			155.908,358.789 155.908,250.271 		"/>
		<polygon fill="#808285" points="822.092,260.899 822.092,243.144 791.936,243.144 791.936,260.899 791.936,263.557 
			791.936,358.789 838.449,358.789 838.449,260.899 		"/>
		<polygon fill="#808285" points="327.242,239.66 327.242,238.653 321.175,238.653 321.175,226.392 307.306,226.392 
			307.306,238.653 301.238,238.653 301.238,239.66 296.904,239.66 296.904,358.789 331.576,358.789 331.576,239.66 		"/>
		<polygon points="890.242,222.317 888.501,212.845 884.881,212.845 883.457,203.816 880.481,203.816 879.458,195.703 
			877.198,195.703 874.256,187.589 872.37,187.589 869.289,164.392 869.253,164.392 866.172,187.589 864.286,187.589 
			861.345,195.703 859.084,195.703 858.062,203.816 855.086,203.816 853.662,212.845 850.041,212.845 848.301,222.317 
			843.846,200.388 843.846,223.357 843.846,358.789 894.697,358.789 894.697,223.357 894.697,200.388 		"/>
		<polygon points="283.036,246.882 283.036,238.47 279.569,238.47 279.569,230.058 277.402,230.058 277.402,224.595 
			270.179,218.029 270.179,230.058 268.012,230.058 268.012,238.47 264.545,238.47 264.545,246.882 261.366,246.882 
			261.366,358.789 286.214,358.789 286.214,246.882 		"/>
		<polygon points="238.975,314.472 238.975,325.688 234.063,325.688 234.063,314.472 217.883,314.472 217.883,358.789 
			233.629,358.789 234.063,358.789 238.975,358.789 239.408,358.789 249.665,358.789 249.665,314.472 		"/>
		<polygon points="165.442,314.472 165.442,298.604 106.067,298.604 106.067,314.472 100,314.472 100,358.789 171.51,358.789 
			171.51,314.472 		"/>
		<rect x="733.909" y="311.185" width="16.613" height="47.604"/>
		<polygon points="648.097,315.054 648.097,284.277 623.538,284.277 623.538,358.789 648.097,358.789 655.176,358.789 
			655.176,315.054 		"/>
		<polygon points="675.689,277.438 675.689,271.604 672.367,271.604 672.367,265.771 669.911,265.771 669.911,259.937 
			664.132,259.937 664.132,265.771 661.677,265.771 661.677,271.604 658.354,271.604 658.354,277.438 654.742,277.438 
			654.742,358.789 679.301,358.789 679.301,277.438 		"/>
		<path fill="#808285" d="M483.217,209.55c0-0.452-0.389-0.821-0.867-0.821c-0.477,0-0.867,0.369-0.867,0.821v19.24h-11.073
			l-5.587,13.132v116.867h18.394V232.382l0,0V209.55z"/>
		<polygon points="554.628,287.021 554.628,316.165 549.861,316.165 549.861,300.152 531.731,300.152 531.731,316.165 
			531.659,316.165 531.659,328.048 524.219,328.048 524.219,358.789 531.659,358.789 531.731,358.789 570.23,358.789 
			570.23,317.764 570.23,316.165 570.23,287.021 		"/>
		<polygon points="689.992,287.021 689.992,316.165 685.225,316.165 685.225,300.558 667.094,300.558 667.094,316.165 
			667.022,316.165 667.022,358.789 705.594,358.789 705.594,317.764 705.594,316.165 705.594,287.021 		"/>
		<polygon points="830.771,310.386 830.771,271.236 824.09,271.236 824.09,263.396 808.597,263.396 808.597,271.236 
			808.597,271.715 808.597,310.386 803.829,310.386 803.829,358.789 844.207,358.789 844.207,310.386 		"/>
		<polygon fill="#808285" points="986.204,240.337 986.204,215.851 956.046,215.851 956.046,240.337 956.046,243.552 
			956.046,358.789 1002.56,358.789 1002.56,240.337 		"/>
		<polygon points="1093.97,323.927 1093.97,316.207 1086.494,316.207 1086.494,313.104 1081.429,313.104 1081.429,307.743 
			1077.695,307.743 1077.695,313.104 1075.745,313.104 1075.745,316.207 1075.745,323.927 1067.404,323.927 1067.404,358.789 
			1100,358.789 1100,323.927 		"/>
		<polygon points="1061.553,244.266 1061.553,241.111 1040.39,241.111 1040.39,244.266 1034.539,244.266 1034.539,358.789 
			1067.404,358.789 1067.404,244.266 		"/>
		<polygon points="462.75,301.836 462.75,316.165 451.481,316.165 451.481,292.809 432.845,292.809 432.845,316.165 
			426.778,316.165 426.778,358.789 481.385,358.789 481.385,316.165 481.385,301.836 		"/>
		<polygon points="512.156,271.829 512.156,256.732 508.833,256.732 508.833,250.748 506.378,250.748 506.378,245.995 
			499.299,245.995 499.299,250.748 496.843,250.748 496.843,256.732 493.52,256.732 493.52,271.829 481.385,271.829 
			481.385,358.789 524.291,358.789 524.291,271.829 		"/>
		<polygon points="191.33,177.456 191.33,219.67 182.084,219.67 182.084,235.35 176.133,235.35 176.133,247.175 171.51,247.175 
			171.51,358.789 217.883,358.789 217.883,250.158 217.883,247.175 217.883,235.35 217.883,219.67 217.883,164.324 		"/>
		<path d="M406.697,246.882v-8.412h-3.467v-8.412h-1.734v-29.1c0-0.452-0.39-0.82-0.867-0.82c-0.478,0-0.867,0.368-0.867,0.82
			v18.254l-5.922,5.383v5.463h-2.167v8.412h-3.467v8.412h-3.179v111.907h24.848V246.882H406.697z"/>
		<path d="M795.595,227.391v-63.604h-6.501v-37.752h-6.501V96.079c0-0.452-0.389-0.821-0.867-0.821s-0.867,0.369-0.867,0.821v29.955
			h-7.368V96.079c0-0.452-0.389-0.821-0.867-0.821s-0.867,0.369-0.867,0.821v29.955h-6.5v37.752h-6.501v63.604h-8.234v131.398
			h53.307V227.391H795.595z"/>
		<polygon points="330.564,288.21 330.564,275.831 318.248,268.649 305.93,275.831 305.717,275.831 305.717,288.21 249.665,288.21 
			249.665,358.789 426.778,358.789 426.778,288.21 		"/>
		<polygon points="1013.158,288.21 1013.158,275.831 1012.944,275.831 1000.627,268.649 988.31,275.831 988.31,288.21 
			952.049,288.21 952.049,250.291 894.047,250.291 894.047,288.21 892.097,288.21 892.097,358.789 1034.539,358.789 
			1034.539,288.21 		"/>
		<polygon points="730.586,198.666 730.586,191.613 727.877,191.613 727.877,186.715 724.843,186.715 724.843,182.842 
			721.701,182.842 721.701,178.97 719.859,178.97 719.859,175.097 716.67,157.255 713.575,175.097 713.575,178.97 711.733,178.97 
			711.733,182.842 708.591,182.842 708.591,186.715 705.558,186.715 705.558,191.613 702.849,191.613 702.849,198.666 
			698.515,198.666 698.515,358.789 734.92,358.789 734.92,198.666 		"/>
		<polygon points="370.292,238.127 370.292,232.67 367.583,232.67 367.583,228.88 364.55,228.88 364.55,225.884 361.408,225.884 
			361.408,222.888 359.566,222.888 359.566,219.891 356.376,206.087 353.282,219.891 353.282,222.888 351.439,222.888 
			351.439,225.884 348.297,225.884 348.297,228.88 345.264,228.88 345.264,232.67 342.555,232.67 342.555,238.127 338.221,238.127 
			338.221,358.789 374.626,358.789 374.626,238.127 		"/>
		<path d="M611.761,125.658h-34.17V89.855c0-0.452-0.417-0.82-0.93-0.82s-0.93,0.368-0.93,0.82v35.803h-3.643V84.932
			c0-0.452-0.417-0.821-0.93-0.821s-0.93,0.369-0.93,0.821v44.522l0.001,0.003v229.332h53.307V138.79L611.761,125.658z"/>
		<path fill="#414042" d="M935.645,309.999v-11.148h0.663c0-12.455-12.325-22.551-27.528-22.551
			c-15.203,0-27.528,10.096-27.528,22.551h0.664v11.148h-6.965v48.79h67.66v-48.79H935.645z"/>
		<polygon fill="#414042" points="362.882,327.396 362.882,307.894 334.656,307.894 334.656,327.396 334.656,328.247 
			334.656,358.789 378.191,358.789 378.191,327.396 		"/>
		<polygon fill="#414042" points="608.354,284.377 608.354,312.89 591.997,312.89 591.997,295.996 563.771,295.996 563.771,320.057 
			548.462,320.057 548.462,358.789 591.997,358.789 638.511,358.789 638.511,314.136 638.511,312.89 638.511,284.377 		"/>
		<path fill="#414042" d="M318.937,300.105c0,3.012,0,3.67,0,3.67v16.817h-9.583l-12.817-25.289l-12.817,25.289v38.196h52.968
			v-37.852v-0.345v-16.817h0.006C336.694,303.775,333.858,300.105,318.937,300.105z"/>
		<polygon fill="#414042" points="835.629,290.046 828.753,303.612 828.604,303.612 828.604,311.531 812.117,311.531 
			812.117,306.78 774.98,306.78 774.98,303.612 769.201,293.58 766.07,293.58 766.07,286.512 752.104,286.512 752.104,293.58 
			748.973,293.58 743.194,303.612 719.594,303.612 713.815,293.58 710.685,293.58 710.685,286.512 696.718,286.512 696.718,293.58 
			693.587,293.58 687.808,303.612 687.808,313.241 668.342,313.241 668.342,358.789 687.808,358.789 687.808,358.789 
			774.961,358.789 774.98,358.789 828.604,358.789 842.655,358.789 842.655,303.612 842.505,303.612 		"/>
		<polygon fill="#414042" points="254,296.081 249.912,296.081 249.912,292.559 245.824,292.559 245.824,299.604 243.435,299.604 
			243.435,292.559 239.348,292.559 239.348,296.081 235.26,296.081 235.26,299.604 221.052,299.604 221.052,358.789 
			268.207,358.789 268.207,299.604 254,299.604 		"/>
		<polygon fill="#414042" points="1040.707,290.424 1036.25,290.424 1036.25,286.583 1031.793,286.583 1031.793,294.264 
			1029.189,294.264 1029.189,286.583 1024.732,286.583 1024.732,290.424 1020.276,290.424 1020.276,294.264 1004.787,294.264 
			1004.787,358.789 1056.196,358.789 1056.196,294.264 1040.707,294.264 		"/>
		<polygon fill="#414042" points="206.681,317.231 193.881,317.231 193.881,315.436 172.294,315.436 172.294,317.231 
			168.467,317.231 168.467,320.725 164.425,320.725 161.118,320.725 161.118,316.379 155.147,316.379 155.147,312.033 
			147.706,312.033 147.706,308.401 144.308,308.401 144.308,304.769 120.117,304.769 120.117,308.401 116.719,308.401 
			116.719,312.033 109.278,312.033 109.278,316.379 103.307,316.379 103.307,320.725 100,320.725 100,358.789 164.425,358.789 
			223.338,358.789 223.338,320.725 206.681,320.725 		"/>
		<polygon fill="#414042" points="535.749,324.597 535.749,317.368 531.107,309.837 528.593,309.837 528.593,304.53 517.376,304.53 
			517.376,309.837 514.862,309.837 510.221,317.368 491.268,317.368 486.626,309.837 484.112,309.837 484.112,304.53 
			472.895,304.53 472.895,309.837 470.381,309.837 465.739,317.368 465.739,319.746 464.515,319.746 454.536,308.872 
			444.557,319.746 435.914,319.746 435.914,323.313 422.674,323.313 422.674,317.368 422.553,317.368 417.031,307.184 
			411.509,317.368 411.389,317.368 411.389,358.789 422.674,358.789 465.739,358.789 465.754,358.789 535.749,358.789 
			551.382,358.789 551.382,324.597 		"/>
		<g>
			<rect x="100" y="340.485" fill="#6D6E71" width="1000" height="15.371"/>
			<rect x="100" y="341.529" width="1000" height="17.26"/>
		</g>
	</g>
</g>
</svg>
